<svg width="16" height="20" viewBox="0 0 16 20" fill="none" xmlns="http://www.w3.org/2000/svg">
<path d="M14.975 14.5L13.3125 11.775V7.9125C13.3716 6.88551 13.1389 5.86275 12.6412 4.96246C12.1435 4.06218 11.4012 3.32114 10.5 2.825C10.5123 2.66691 10.5123 2.5081 10.5 2.35C10.4903 2.0315 10.4179 1.71803 10.287 1.42752C10.1561 1.137 9.96921 0.875135 9.73703 0.656888C9.50486 0.438641 9.23194 0.268292 8.93389 0.15558C8.63584 0.0428679 8.3185 -0.00999782 8 4.97291e-06C7.68151 -0.00999782 7.36417 0.0428679 7.06612 0.15558C6.76807 0.268292 6.49515 0.438641 6.26297 0.656888C6.0308 0.875135 5.84391 1.137 5.71299 1.42752C5.58208 1.71803 5.5097 2.0315 5.5 2.35C5.4816 2.5078 5.4816 2.66721 5.5 2.825C4.59885 3.32114 3.85652 4.06218 3.35882 4.96246C2.86112 5.86275 2.62838 6.88551 2.6875 7.9125V11.775L1.025 14.5C0.881194 14.7362 0.802654 15.0064 0.797401 15.2829C0.792149 15.5594 0.860373 15.8323 0.995106 16.0738C1.12984 16.3153 1.32625 16.5167 1.56429 16.6575C1.80233 16.7982 2.07346 16.8733 2.35 16.875H4.5625C4.62033 17.7392 5.01066 18.5475 5.65158 19.1301C6.29249 19.7128 7.13418 20.0246 8 20C8.86583 20.0246 9.70751 19.7128 10.3484 19.1301C10.9893 18.5475 11.3797 17.7392 11.4375 16.875H13.65C13.9265 16.8733 14.1977 16.7982 14.4357 16.6575C14.6738 16.5167 14.8702 16.3153 15.0049 16.0738C15.1396 15.8323 15.2079 15.5594 15.2026 15.2829C15.1974 15.0064 15.1188 14.7362 14.975 14.5ZM7.0625 2.35C7.08473 2.12221 7.19532 1.91219 7.37058 1.76497C7.54583 1.61776 7.77179 1.54507 8 1.5625C8.22822 1.54507 8.45418 1.61776 8.62943 1.76497C8.80468 1.91219 8.91528 2.12221 8.9375 2.35C8.62531 2.33045 8.3122 2.33045 8 2.35C7.68782 2.33012 7.37469 2.33012 7.0625 2.35ZM8 18.4375C7.54833 18.4602 7.10466 18.3121 6.75724 18.0226C6.40981 17.7331 6.1841 17.3234 6.125 16.875H9.875C9.8159 17.3234 9.59019 17.7331 9.24277 18.0226C8.89535 18.3121 8.45167 18.4602 8 18.4375ZM2.35 15.3125L4.025 12.6L4.25 12.2125V7.9125C4.247 6.97638 4.50686 6.05821 5 5.2625C5.34028 4.79616 5.79529 4.42565 6.32092 4.18693C6.84654 3.94821 7.42493 3.84937 8 3.9C8.57507 3.84937 9.15347 3.94821 9.67909 4.18693C10.2047 4.42565 10.6597 4.79616 11 5.2625C11.4931 6.05821 11.753 6.97638 11.75 7.9125V12.2125L11.975 12.6L13.65 15.3125H2.35Z" fill="#2D2F48"/>
</svg>
