<svg width="16" height="16" viewBox="0 0 16 16" fill="none" xmlns="http://www.w3.org/2000/svg">
<path d="M2.16667 15.5C1.70833 15.5 1.31583 15.3369 0.989167 15.0108C0.663055 14.6842 0.5 14.2917 0.5 13.8333V3.41667C0.5 3.20833 0.534722 3.02083 0.604167 2.85417C0.673611 2.6875 0.763889 2.52778 0.875 2.375L2.04167 0.958333C2.15278 0.805556 2.29167 0.690833 2.45833 0.614167C2.625 0.538056 2.80556 0.5 3 0.5H13C13.1944 0.5 13.375 0.538056 13.5417 0.614167C13.7083 0.690833 13.8472 0.805556 13.9583 0.958333L15.125 2.375C15.2361 2.52778 15.3264 2.6875 15.3958 2.85417C15.4653 3.02083 15.5 3.20833 15.5 3.41667V13.8333C15.5 14.2917 15.3369 14.6842 15.0108 15.0108C14.6842 15.3369 14.2917 15.5 13.8333 15.5H2.16667ZM2.5 3H13.5L12.7917 2.16667H3.20833L2.5 3ZM2.16667 13.8333H13.8333V4.66667H2.16667V13.8333ZM8 12.6458C8.11111 12.6458 8.21528 12.6283 8.3125 12.5933C8.40972 12.5589 8.5 12.5 8.58333 12.4167L10.75 10.25C10.9028 10.0972 10.9792 9.90278 10.9792 9.66667C10.9792 9.43056 10.9028 9.23611 10.75 9.08333C10.5972 8.93056 10.4028 8.85417 10.1667 8.85417C9.93056 8.85417 9.73611 8.93056 9.58333 9.08333L8.83333 9.83333V7.16667C8.83333 6.93056 8.75361 6.7325 8.59417 6.5725C8.43417 6.41306 8.23611 6.33333 8 6.33333C7.76389 6.33333 7.56611 6.41306 7.40667 6.5725C7.24667 6.7325 7.16667 6.93056 7.16667 7.16667V9.83333L6.41667 9.08333C6.26389 8.93056 6.06944 8.85417 5.83333 8.85417C5.59722 8.85417 5.40278 8.93056 5.25 9.08333C5.09722 9.23611 5.02083 9.43056 5.02083 9.66667C5.02083 9.90278 5.09722 10.0972 5.25 10.25L7.41667 12.4167C7.5 12.5 7.59028 12.5589 7.6875 12.5933C7.78472 12.6283 7.88889 12.6458 8 12.6458Z" fill="#2D2F48"/>
</svg>
