<svg width="24" height="24" viewBox="0 0 24 24" fill="none" xmlns="http://www.w3.org/2000/svg">
<path d="M13.3333 13.3333V21.6667C13.3333 22.5871 12.5871 23.3333 11.6667 23.3333C10.7462 23.3333 10 22.5871 10 21.6667V13.3333H1.66667C0.746193 13.3333 0 12.5871 0 11.6667C0 10.7462 0.746193 10 1.66667 10H10V1.66667C10 0.746193 10.7462 0 11.6667 0C12.5871 0 13.3333 0.746193 13.3333 1.66667V10H21.6667C22.5871 10 23.3333 10.7462 23.3333 11.6667C23.3333 12.5871 22.5871 13.3333 21.6667 13.3333H13.3333Z" fill="white"/>
</svg>
