<svg width="16" height="16" viewBox="0 0 16 16" fill="none" xmlns="http://www.w3.org/2000/svg">
<path d="M2.99998 3.83333V13C2.99998 13.442 3.17557 13.8659 3.48813 14.1785C3.8007 14.4911 4.22462 14.6667 4.66665 14.6667H11.3333C11.7753 14.6667 12.1993 14.4911 12.5118 14.1785C12.8244 13.8659 13 13.442 13 13V3.83333M5.49998 3.83333C5.49998 3.17029 5.76337 2.53441 6.23221 2.06557C6.70105 1.59672 7.33694 1.33333 7.99998 1.33333V1.33333C8.66302 1.33333 9.29891 1.59672 9.76775 2.06557C10.2366 2.53441 10.5 3.17029 10.5 3.83333V3.83333H5.49998ZM5.49998 3.83333H10.5H5.49998ZM5.49998 3.83333H2.99998H5.49998ZM10.5 3.83333H13H10.5ZM14.6666 3.83333H13H14.6666ZM1.33331 3.83333H2.99998H1.33331Z" stroke="#1E1F4B" stroke-opacity="0.5" stroke-width="1.7" stroke-linecap="round" stroke-linejoin="round"/>
</svg>
