<svg width="17" height="17" viewBox="0 0 17 17" fill="none" xmlns="http://www.w3.org/2000/svg">
<path d="M9.66667 4L13 7.33333M9.66667 4L11.5775 2.08917C11.7338 1.93294 11.9457 1.84518 12.1667 1.84518C12.3876 1.84518 12.5996 1.93294 12.7558 2.08917L14.9108 4.24417C15.0671 4.40044 15.1548 4.61236 15.1548 4.83333C15.1548 5.0543 15.0671 5.26623 14.9108 5.4225L13 7.33333L9.66667 4ZM9.66667 4L1.5775 12.0892C1.42121 12.2454 1.33338 12.4573 1.33334 12.6783V14.8333C1.33334 15.0543 1.42113 15.2663 1.57741 15.4226C1.73369 15.5789 1.94566 15.6667 2.16667 15.6667H4.32167C4.54267 15.6666 4.75459 15.5788 4.91084 15.4225L13 7.33333L9.66667 4Z" stroke="#2D2F48" stroke-width="1.7" stroke-linecap="round" stroke-linejoin="round"/>
</svg>
