<svg width="4" height="15" viewBox="0 0 4 15" fill="none" xmlns="http://www.w3.org/2000/svg">
<path d="M1.66667 3.33333C2.58712 3.33333 3.33333 2.58712 3.33333 1.66667C3.33333 0.746192 2.58712 0 1.66667 0C0.746208 0 0 0.746192 0 1.66667C0 2.58712 0.746208 3.33333 1.66667 3.33333Z" fill="#2D2F48"/>
<path d="M1.66667 9.16666C2.58712 9.16666 3.33333 8.42045 3.33333 7.49999C3.33333 6.57954 2.58712 5.83333 1.66667 5.83333C0.746208 5.83333 0 6.57954 0 7.49999C0 8.42045 0.746208 9.16666 1.66667 9.16666Z" fill="#2D2F48"/>
<path d="M1.66667 15C2.58712 15 3.33333 14.2538 3.33333 13.3333C3.33333 12.4129 2.58712 11.6667 1.66667 11.6667C0.746208 11.6667 0 12.4129 0 13.3333C0 14.2538 0.746208 15 1.66667 15Z" fill="#2D2F48"/>
</svg>
