<svg width="20" height="20" viewBox="0 0 20 20" fill="none" xmlns="http://www.w3.org/2000/svg">
<path d="M1.66669 5.00001C1.66669 4.11595 2.01788 3.2681 2.643 2.64298C3.26812 2.01786 4.11597 1.66667 5.00002 1.66667H15C15.8841 1.66667 16.7319 2.01786 17.357 2.64298C17.9822 3.2681 18.3334 4.11595 18.3334 5.00001V15C18.3334 15.8841 17.9822 16.7319 17.357 17.357C16.7319 17.9821 15.8841 18.3333 15 18.3333H5.00002C4.11597 18.3333 3.26812 17.9821 2.643 17.357C2.01788 16.7319 1.66669 15.8841 1.66669 15V5.00001Z" stroke="#2D2F48" stroke-width="1.7" stroke-linecap="round" stroke-linejoin="round"/>
<path d="M7.08333 9.16667C8.23393 9.16667 9.16667 8.23393 9.16667 7.08333C9.16667 5.93274 8.23393 5 7.08333 5C5.93274 5 5 5.93274 5 7.08333C5 8.23393 5.93274 9.16667 7.08333 9.16667Z" stroke="#2D2F48" stroke-width="1.7" stroke-linecap="round" stroke-linejoin="round"/>
<path d="M12.105 10.5175L5 18.3333H15.1108C15.9655 18.3333 16.7851 17.9938 17.3895 17.3895C17.9938 16.7852 18.3333 15.9655 18.3333 15.1108V15C18.3333 14.6117 18.1875 14.4625 17.925 14.175L14.5667 10.5125C14.4101 10.3418 14.2198 10.2055 14.0076 10.1125C13.7955 10.0194 13.5664 9.97162 13.3347 9.9721C13.1031 9.97257 12.8741 10.0213 12.6624 10.1152C12.4507 10.2091 12.2608 10.3461 12.105 10.5175V10.5175Z" stroke="#2D2F48" stroke-width="1.7" stroke-linecap="round" stroke-linejoin="round"/>
</svg>
