<svg width="16" height="19" viewBox="0 0 16 19" fill="none" xmlns="http://www.w3.org/2000/svg">
<path fill-rule="evenodd" clip-rule="evenodd" d="M1.00068 10.707V10.5267C1.02714 9.99314 1.19814 9.47617 1.49606 9.02909C1.99194 8.49203 2.3314 7.8339 2.47882 7.12375C2.47882 6.57488 2.47882 6.01818 2.52676 5.46932C2.77445 2.82693 5.38717 1 7.96793 1H8.03185C10.6126 1 13.2253 2.82693 13.481 5.46932C13.5289 6.01818 13.481 6.57488 13.521 7.12375C13.6704 7.83555 14.0095 8.49572 14.5037 9.03693C14.8039 9.48005 14.9751 9.99513 14.9991 10.5267V10.6992C15.0169 11.416 14.77 12.115 14.304 12.6673C13.6881 13.313 12.8523 13.7147 11.9549 13.7964C9.32341 14.0786 6.66838 14.0786 4.03687 13.7964C3.14047 13.7112 2.30592 13.31 1.68782 12.6673C1.22894 12.1146 0.985375 11.4198 1.00068 10.707Z" stroke="currentColor" stroke-opacity="0.5" stroke-width="1.1" stroke-linecap="round" stroke-linejoin="round"/>
<path d="M5.98639 16.525C6.39756 17.0411 7.00136 17.3751 7.66416 17.4531C8.32696 17.5311 8.99411 17.3467 9.51795 16.9406C9.67907 16.8205 9.82404 16.6809 9.94941 16.525" stroke="currentColor" stroke-opacity="0.5" stroke-width="1.1" stroke-linecap="round" stroke-linejoin="round"/>
</svg>
