<svg width="20" height="20" viewBox="0 0 20 20" fill="none" xmlns="http://www.w3.org/2000/svg">
<path d="M16.2833 4.23333C15.4478 3.40368 14.455 2.74928 13.3631 2.30853C12.2712 1.86777 11.1023 1.64955 9.92499 1.66666C7.71486 1.66113 5.59305 2.53381 4.02633 4.0927C2.45962 5.6516 1.57635 7.76902 1.57083 9.97916C1.5653 12.1893 2.43798 14.3111 3.99687 15.8778C5.55577 17.4445 7.67319 18.3278 9.88333 18.3333C10.3596 18.3414 10.825 18.1911 11.2066 17.9061C11.5882 17.621 11.8643 17.2173 11.9917 16.7583C12.0728 16.4269 12.072 16.0806 11.9892 15.7496C11.9064 15.4185 11.7443 15.1126 11.5167 14.8583C11.464 14.7984 11.4297 14.7247 11.4177 14.6459C11.4057 14.5671 11.4166 14.4865 11.4491 14.4137C11.4816 14.3408 11.5342 14.2789 11.6009 14.2351C11.6675 14.1913 11.7453 14.1676 11.825 14.1667H13.2C14.4941 14.1727 15.7426 13.6889 16.6948 12.8125C17.647 11.9361 18.2323 10.7319 18.3333 9.44166C18.3643 8.47967 18.1985 7.52149 17.846 6.62587C17.4935 5.73026 16.9617 4.9161 16.2833 4.23333ZM13.2333 12.5H11.8583C11.4568 12.4977 11.0632 12.612 10.7253 12.829C10.3874 13.046 10.1197 13.3564 9.95477 13.7225C9.78979 14.0886 9.7346 14.4947 9.79588 14.8916C9.85716 15.2885 10.0323 15.659 10.3 15.9583C10.3521 16.0109 10.389 16.0767 10.4066 16.1486C10.4242 16.2206 10.4219 16.2959 10.4 16.3667C10.3583 16.5417 10.1667 16.65 9.90833 16.6667C8.96193 16.6545 8.02896 16.441 7.17148 16.0403C6.314 15.6397 5.55167 15.061 4.93519 14.3428C4.31871 13.6246 3.86222 12.7834 3.59608 11.8751C3.32995 10.9669 3.26026 10.0123 3.39166 9.07499C3.6293 7.49995 4.41629 6.05969 5.61344 5.00894C6.81059 3.95819 8.34076 3.36466 9.93333 3.33333H9.99999C10.9424 3.32099 11.8777 3.4975 12.7507 3.85245C13.6238 4.20739 14.4169 4.73359 15.0833 5.39999C15.6033 5.92032 16.0119 6.54112 16.2841 7.22453C16.5563 7.90794 16.6865 8.63963 16.6667 9.37499C16.5804 10.2275 16.1821 11.0182 15.5484 11.595C14.9147 12.1718 14.0902 12.4941 13.2333 12.5Z" fill="#2D2F48"/>
<path d="M10 6.66667C10.6904 6.66667 11.25 6.10703 11.25 5.41667C11.25 4.72632 10.6904 4.16667 10 4.16667C9.30964 4.16667 8.75 4.72632 8.75 5.41667C8.75 6.10703 9.30964 6.66667 10 6.66667Z" fill="#2D2F48"/>
<path d="M12.7083 6C12.4943 6.12363 12.3217 6.30794 12.2124 6.52963C12.1031 6.75132 12.062 7.00043 12.0943 7.24549C12.1265 7.49054 12.2307 7.72053 12.3936 7.90639C12.5566 8.09225 12.7709 8.22564 13.0097 8.28969C13.2484 8.35373 13.5008 8.34557 13.7348 8.26623C13.9689 8.18689 14.1742 8.03993 14.3248 7.84393C14.4754 7.64793 14.5645 7.41168 14.5808 7.16506C14.5972 6.91843 14.5401 6.67249 14.4167 6.45833C14.3347 6.316 14.2254 6.19122 14.0951 6.09115C13.9649 5.99107 13.8162 5.91765 13.6575 5.87508C13.4988 5.83251 13.3333 5.82163 13.1705 5.84307C13.0076 5.8645 12.8506 5.91783 12.7083 6ZM7.29166 6C7.0775 5.8766 6.83156 5.81947 6.58494 5.83581C6.33831 5.85216 6.10207 5.94126 5.90607 6.09184C5.71007 6.24242 5.56311 6.44773 5.48376 6.68182C5.40442 6.91591 5.39626 7.16826 5.46031 7.40699C5.52436 7.64571 5.65774 7.86009 5.8436 8.02303C6.02946 8.18596 6.25945 8.29014 6.50451 8.32239C6.74956 8.35464 6.99868 8.31352 7.22036 8.20422C7.44205 8.09492 7.62636 7.92236 7.75 7.70833C7.83216 7.56609 7.88549 7.40905 7.90692 7.24618C7.92836 7.08332 7.91748 6.91782 7.87491 6.75917C7.83235 6.60051 7.75893 6.45179 7.65885 6.32153C7.55877 6.19127 7.434 6.08201 7.29166 6ZM5.13333 9.38333C4.9283 9.52177 4.76897 9.71793 4.67549 9.94698C4.58202 10.176 4.55861 10.4277 4.60823 10.67C4.65785 10.9124 4.77827 11.1346 4.95425 11.3084C5.13022 11.4823 5.35383 11.6001 5.59677 11.6468C5.8397 11.6935 6.09104 11.6671 6.31895 11.5709C6.54686 11.4747 6.7411 11.313 6.87708 11.1063C7.01305 10.8997 7.08464 10.6573 7.08279 10.4099C7.08094 10.1625 7.00572 9.92127 6.86666 9.71666C6.77531 9.58029 6.65782 9.46338 6.521 9.3727C6.38418 9.28202 6.23073 9.21937 6.06954 9.18837C5.90835 9.15737 5.74261 9.15864 5.58191 9.1921C5.42122 9.22557 5.26875 9.29056 5.13333 9.38333Z" fill="#2D2F48"/>
</svg>
