<svg width="13" height="15" viewBox="0 0 13 15" fill="none" xmlns="http://www.w3.org/2000/svg">
<path d="M11.1667 13.8333C11.1667 14.0543 11.0789 14.2663 10.9226 14.4226C10.7663 14.5789 10.5543 14.6667 10.3333 14.6667H6.16666C4.29833 14.6667 2.825 14.0183 1.81833 12.9808C0.821664 11.9533 0.333331 10.5942 0.333331 9.24999C0.333331 7.90583 0.821664 6.54666 1.81833 5.51916C2.825 4.48166 4.29833 3.83333 6.16666 3.83333H9.98833L8.28583 2.13083C8.13403 1.97366 8.05004 1.76316 8.05194 1.54466C8.05383 1.32616 8.14148 1.11715 8.29598 0.962645C8.45049 0.808138 8.6595 0.720497 8.878 0.718598C9.09649 0.7167 9.307 0.800695 9.46416 0.952493L12.5892 4.07749C12.7454 4.23377 12.8332 4.44569 12.8332 4.66666C12.8332 4.88763 12.7454 5.09955 12.5892 5.25583L9.46416 8.38083C9.307 8.53262 9.09649 8.61662 8.878 8.61472C8.6595 8.61282 8.45049 8.52518 8.29598 8.37068C8.14148 8.21617 8.05383 8.00716 8.05194 7.78866C8.05004 7.57016 8.13403 7.35966 8.28583 7.20249L9.98833 5.49999H6.16666C4.70166 5.49999 3.675 5.99749 3.015 6.67916C2.345 7.37083 2 8.30249 2 9.24999C2 10.1975 2.345 11.13 3.015 11.8208C3.675 12.5025 4.70166 13 6.16666 13H10.3333C10.5543 13 10.7663 13.0878 10.9226 13.2441C11.0789 13.4004 11.1667 13.6123 11.1667 13.8333Z" fill="#2D2F48"/>
</svg>
