<svg width="13" height="15" viewBox="0 0 13 15" fill="none" xmlns="http://www.w3.org/2000/svg">
<path d="M1.83333 13.8333C1.83333 14.0543 1.92113 14.2663 2.07741 14.4226C2.23369 14.5789 2.44565 14.6667 2.66666 14.6667H6.83333C8.70166 14.6667 10.175 14.0183 11.1817 12.9808C12.1783 11.9533 12.6667 10.5942 12.6667 9.24999C12.6667 7.90583 12.1783 6.54666 11.1817 5.51916C10.175 4.48166 8.70166 3.83333 6.83333 3.83333H3.01166L4.71416 2.13083C4.86596 1.97366 4.94995 1.76316 4.94806 1.54466C4.94616 1.32616 4.85852 1.11715 4.70401 0.962645C4.5495 0.808138 4.34049 0.720497 4.122 0.718598C3.9035 0.7167 3.693 0.800695 3.53583 0.952493L0.410828 4.07749C0.254603 4.23377 0.16684 4.44569 0.16684 4.66666C0.16684 4.88763 0.254603 5.09955 0.410828 5.25583L3.53583 8.38083C3.693 8.53263 3.9035 8.61662 4.122 8.61472C4.34049 8.61282 4.5495 8.52518 4.70401 8.37068C4.85852 8.21617 4.94616 8.00716 4.94806 7.78866C4.94995 7.57016 4.86596 7.35966 4.71416 7.20249L3.01166 5.49999H6.83333C8.29833 5.49999 9.32499 5.99749 9.98499 6.67916C10.655 7.37083 11 8.30249 11 9.24999C11 10.1975 10.655 11.13 9.98499 11.8208C9.32499 12.5025 8.29833 13 6.83333 13H2.66666C2.44565 13 2.23369 13.0878 2.07741 13.2441C1.92113 13.4004 1.83333 13.6123 1.83333 13.8333Z" fill="#2D2F48"/>
</svg>
