<svg width="16" height="18" viewBox="0 0 16 18" fill="none" xmlns="http://www.w3.org/2000/svg">
<path d="M4.66667 3.16667C4.66667 3.60869 4.84226 4.03262 5.15482 4.34518C5.46739 4.65774 5.89131 4.83333 6.33334 4.83333H9.66667C10.1087 4.83333 10.5326 4.65774 10.8452 4.34518C11.1577 4.03262 11.3333 3.60869 11.3333 3.16667M4.66667 3.16667H3C2.55798 3.16667 2.13405 3.34226 1.82149 3.65482C1.50893 3.96738 1.33334 4.39131 1.33334 4.83333V14.8333C1.33334 15.2754 1.50893 15.6993 1.82149 16.0118C2.13405 16.3244 2.55798 16.5 3 16.5H13C13.442 16.5 13.866 16.3244 14.1785 16.0118C14.4911 15.6993 14.6667 15.2754 14.6667 14.8333V4.83333C14.6667 4.39131 14.4911 3.96738 14.1785 3.65482C13.866 3.34226 13.442 3.16667 13 3.16667H11.3333H4.66667ZM4.66667 3.16667C4.66667 2.72464 4.84226 2.30072 5.15482 1.98816C5.46739 1.67559 5.89131 1.5 6.33334 1.5H9.66667C10.1087 1.5 10.5326 1.67559 10.8452 1.98816C11.1577 2.30072 11.3333 2.72464 11.3333 3.16667H4.66667Z" stroke="#2D2F48" stroke-width="1.7" stroke-linecap="round" stroke-linejoin="round"/>
<path d="M5.5 10.6667L7.16667 12.3333L10.5 8.16667" stroke="#2D2F48" stroke-width="1.7" stroke-linecap="round" stroke-linejoin="round"/>
</svg>
