<svg width="18" height="18" viewBox="0 0 18 18" fill="none" xmlns="http://www.w3.org/2000/svg">
<path d="M17 17L12.95 12.95L17 17ZM12.95 12.95C13.6 12.2999 14.1157 11.5282 14.4675 10.6789C14.8193 9.82959 15.0003 8.91929 15.0003 7.99999C15.0003 7.08069 14.8193 6.17039 14.4675 5.32107C14.1157 4.47175 13.6 3.70003 12.95 3.04999C12.2999 2.39995 11.5282 1.8843 10.6789 1.5325C9.82959 1.1807 8.91929 0.999634 7.99999 0.999634C7.08069 0.999634 6.17039 1.1807 5.32107 1.5325C4.47175 1.8843 3.70003 2.39995 3.04999 3.04999C1.73717 4.36281 0.999634 6.14338 0.999634 7.99999C0.999634 9.8566 1.73717 11.6372 3.04999 12.95C4.36281 14.2628 6.14338 15.0003 7.99999 15.0003C9.8566 15.0003 11.6372 14.2628 12.95 12.95V12.95Z" stroke="currentColor" stroke-opacity="0.5" stroke-width="1.1" stroke-linecap="round" stroke-linejoin="round"/>
</svg>
