<svg width="17" height="19" viewBox="0 0 17 19" fill="none" xmlns="http://www.w3.org/2000/svg">
<path d="M10.3518 1.92595L10.8481 2.79262C11.0354 3.12003 11.3061 3.39194 11.6327 3.58062C11.9593 3.7693 12.3301 3.86801 12.7073 3.86669H13.6851C14.0611 3.86517 14.4307 3.96302 14.7567 4.15032C15.0826 4.33763 15.3533 4.60775 15.5413 4.93332C15.7292 5.25889 15.8278 5.62835 15.8271 6.00428C15.8263 6.38022 15.7263 6.74928 15.537 7.0741L15.0333 7.93336C14.844 8.25967 14.7443 8.6302 14.7443 9.00743C14.7443 9.38466 14.844 9.75519 15.0333 10.0815L15.537 10.9408C15.7244 11.2654 15.823 11.6337 15.8228 12.0085C15.8226 12.3834 15.7236 12.7515 15.5359 13.076C15.3481 13.4004 15.0782 13.6696 14.7533 13.8566C14.4284 14.0435 14.06 14.1415 13.6851 14.1408H12.7073C12.3301 14.1394 11.9593 14.2382 11.6327 14.4268C11.3061 14.6155 11.0354 14.8874 10.8481 15.2148L10.3518 16.0815C10.1651 16.4079 9.89556 16.6791 9.57036 16.8677C9.24516 17.0564 8.87589 17.1557 8.49994 17.1557C8.12398 17.1557 7.75471 17.0564 7.42951 16.8677C7.10431 16.6791 6.83473 16.4079 6.64808 16.0815L6.15179 15.2148C5.9645 14.8874 5.69375 14.6155 5.36714 14.4268C5.04052 14.2382 4.66972 14.1394 4.29253 14.1408H3.31475C2.93881 14.1423 2.56915 14.0444 2.2432 13.8571C1.91725 13.6698 1.64658 13.3997 1.4586 13.0741C1.27063 12.7486 1.17203 12.3791 1.17278 12.0032C1.17354 11.6272 1.27362 11.2582 1.4629 10.9334L1.9666 10.0741C2.15587 9.74778 2.25555 9.37725 2.25555 9.00002C2.25555 8.62279 2.15587 8.25226 1.9666 7.92595L1.44808 7.06669C1.25814 6.74079 1.15801 6.37035 1.1579 5.99314C1.15778 5.61593 1.25768 5.24543 1.44742 4.91942C1.63716 4.5934 1.90995 4.32352 2.23798 4.13728C2.56601 3.95105 2.93756 3.85512 3.31475 3.85928H4.29253C4.66899 3.86135 5.0393 3.76376 5.36585 3.57642C5.6924 3.38907 5.96356 3.11865 6.15179 2.79262L6.64808 1.92595C6.83473 1.5996 7.10431 1.32837 7.42951 1.13974C7.75471 0.951096 8.12398 0.851746 8.49994 0.851746C8.87589 0.851746 9.24516 0.951096 9.57036 1.13974C9.89556 1.32837 10.1651 1.5996 10.3518 1.92595Z" stroke="currentColor" stroke-opacity="0.5" stroke-width="1.1" stroke-linecap="round" stroke-linejoin="round"/>
<path d="M8.50004 11.8074C10.0505 11.8074 11.3074 10.5505 11.3074 9C11.3074 7.44952 10.0505 6.1926 8.50004 6.1926C6.94955 6.1926 5.69263 7.44952 5.69263 9C5.69263 10.5505 6.94955 11.8074 8.50004 11.8074Z" stroke="currentColor" stroke-opacity="0.5" stroke-width="1.1" stroke-linecap="round" stroke-linejoin="round"/>
</svg>
