<svg width="16" height="19" viewBox="0 0 16 19" fill="none" xmlns="http://www.w3.org/2000/svg">
<path d="M5.50003 1.5H10.5M13.8334 4.83333L12.7142 5.9525L13.8334 4.83333ZM12.7142 5.9525C11.4639 4.70223 9.76818 3.99983 8.00003 3.99983C6.23187 3.99983 4.53614 4.70223 3.28586 5.9525C2.03559 7.20277 1.33319 8.89851 1.33319 10.6667C1.33319 12.4348 2.03559 14.1306 3.28586 15.3808C4.53614 16.6311 6.23187 17.3335 8.00003 17.3335C9.76818 17.3335 11.4639 16.6311 12.7142 15.3808C13.9645 14.1306 14.6669 12.4348 14.6669 10.6667C14.6669 8.89851 13.9645 7.20277 12.7142 5.9525V5.9525ZM8.00003 7.33333V10.6667V7.33333Z" stroke="#2D2F48" stroke-width="1.7" stroke-linecap="round" stroke-linejoin="round"/>
</svg>
